<svg xmlns="http://www.w3.org/2000/svg" xmlns:xlink="http://www.w3.org/1999/xlink" width="1200" zoomAndPan="magnify" viewBox="0 0 900 899.99999" height="1200" preserveAspectRatio="xMidYMid meet" version="1.0"><defs><clipPath id="88f8ac9bf8"><path d="M 149 529 L 891.9375 529 L 891.9375 851 L 149 851 Z M 149 529 " clip-rule="nonzero"/></clipPath><clipPath id="03241ff773"><path d="M 8.4375 0 L 687 0 L 687 900 L 8.4375 900 Z M 8.4375 0 " clip-rule="nonzero"/></clipPath></defs><g clip-path="url(#88f8ac9bf8)"><path fill="#b47bff" d="M 828.929688 850.433594 C 769.429688 850.433594 696.355469 838.742188 614.515625 815.777344 C 519.523438 789.261719 420.355469 749.386719 335.382812 703.453125 C 226.398438 644.578125 177.546875 600.738281 155.625 574.011719 C 148.734375 565.453125 147.484375 553.761719 152.703125 544.160156 C 157.921875 534.34375 168.359375 528.707031 179.425781 529.753906 C 260.429688 537.476562 342.6875 552.300781 424.113281 573.597656 C 424.320312 573.597656 424.527344 573.804688 424.738281 573.804688 C 434.550781 576.308594 444.78125 579.234375 455.429688 582.15625 C 462.109375 584.035156 465.867188 590.925781 463.988281 597.605469 C 462.109375 604.285156 455.21875 608.042969 448.539062 606.164062 C 437.890625 603.242188 427.660156 600.320312 417.847656 597.8125 C 417.640625 597.8125 417.429688 597.605469 417.222656 597.605469 C 337.46875 576.519531 256.671875 562.113281 177.128906 554.597656 C 176.710938 554.597656 175.667969 554.386719 174.832031 555.851562 C 174.207031 557.101562 174.832031 557.730469 175.042969 558.144531 C 195.5 582.992188 242.058594 624.539062 347.492188 681.324219 C 523.070312 776.109375 740.410156 836.027344 864.421875 823.5 C 865.257812 823.5 865.882812 822.875 866.300781 822.039062 C 866.71875 820.789062 866.089844 820.160156 865.882812 819.953125 C 826.839844 774.648438 740.824219 719.949219 636.019531 673.601562 C 629.757812 670.886719 626.832031 663.371094 629.546875 657.105469 C 632.261719 650.84375 639.777344 647.921875 646.042969 650.632812 C 754.1875 698.234375 843.335938 755.441406 884.882812 803.457031 C 891.5625 811.183594 893.234375 821.832031 889.476562 831.226562 C 885.714844 840.621094 876.949219 847.300781 866.925781 848.34375 C 854.816406 849.808594 842.082031 850.433594 828.929688 850.433594 Z M 828.929688 850.433594 " fill-opacity="1" fill-rule="nonzero"/></g><path fill="#b47bff" d="M 585.914062 652.09375 C 584.453125 652.09375 582.78125 651.886719 581.320312 651.261719 C 557.3125 641.867188 532.464844 632.886719 507.832031 624.746094 C 501.359375 622.65625 497.601562 615.558594 499.898438 608.878906 C 501.984375 602.40625 509.082031 598.648438 515.765625 600.945312 C 540.816406 609.296875 565.871094 618.273438 590.507812 627.878906 C 596.980469 630.382812 600.109375 637.691406 597.605469 644.164062 C 595.515625 649.171875 590.925781 652.09375 585.914062 652.09375 Z M 585.914062 652.09375 " fill-opacity="1" fill-rule="nonzero"/><g clip-path="url(#03241ff773)"><path fill="#b47bff" d="M 623.285156 899.703125 C 548.332031 899.703125 478.183594 890.9375 413.671875 873.609375 C 342.6875 854.609375 278.175781 824.960938 222.226562 785.503906 C 95.289062 696.566406 45.183594 582.992188 26.808594 523.070312 C -0.75 434.339844 2.800781 329.535156 36.203125 235.378906 C 72.113281 134.328125 137.042969 60.632812 218.882812 27.644531 C 335.589844 -19.328125 413.671875 4.679688 449.792969 23.050781 C 487.789062 42.46875 515.136719 73.367188 523.070312 105.726562 C 531.421875 139.550781 531.003906 170.867188 522.027344 196.335938 C 512.007812 224.9375 491.128906 246.234375 461.691406 258.132812 C 428.496094 271.496094 395.507812 268.78125 373.585938 251.035156 C 356.46875 237.046875 348.953125 216.171875 353.128906 193.414062 C 357.722656 167.734375 372.960938 148.734375 394.046875 142.679688 C 407.617188 138.714844 421.816406 140.59375 435.175781 147.691406 C 432.046875 134.746094 424.945312 124.101562 414.089844 117 C 394.257812 104.058594 366.28125 105.101562 340.808594 119.714844 C 278.804688 155.417969 222.433594 239.554688 250.410156 368.367188 C 279.847656 504.074219 425.15625 573.804688 426.617188 574.640625 C 432.878906 577.5625 435.59375 585.078125 432.671875 591.339844 C 429.75 597.605469 422.234375 600.320312 415.96875 597.394531 C 414.300781 596.5625 375.882812 578.398438 333.292969 542.070312 C 276.507812 493.425781 239.34375 435.386719 225.984375 373.796875 C 195.292969 231.828125 258.761719 138.296875 328.285156 98.003906 C 361.894531 78.585938 400.101562 77.75 427.871094 96.125 C 453.132812 112.617188 465.242188 141.636719 461.273438 175.667969 C 460.648438 180.46875 457.308594 184.644531 452.714844 186.105469 C 448.121094 187.566406 442.902344 186.316406 439.5625 182.765625 C 427.035156 169.195312 413.046875 163.351562 401.144531 166.898438 C 389.664062 170.238281 380.894531 181.929688 377.972656 198.007812 C 375.464844 211.578125 379.640625 223.476562 389.664062 231.621094 C 404.488281 243.730469 427.871094 244.980469 452.503906 234.960938 C 513.050781 210.535156 507.621094 147.273438 498.855469 111.78125 C 492.800781 86.9375 469.625 61.464844 438.515625 45.601562 C 406.15625 29.105469 335.800781 7.8125 228.488281 51.027344 C 64.808594 117 -0.121094 350.832031 51.027344 515.765625 C 108.234375 701.15625 302.1875 892.605469 673.808594 873.398438 C 680.699219 873.191406 686.542969 878.410156 686.960938 885.300781 C 687.378906 892.1875 681.949219 898.035156 675.0625 898.453125 C 657.523438 899.289062 640.195312 899.703125 623.285156 899.703125 Z M 623.285156 899.703125 " fill-opacity="1" fill-rule="nonzero"/></g><path fill="#b47bff" d="M 485.28125 830.183594 C 484.03125 830.183594 482.570312 829.972656 481.316406 829.554688 C 452.296875 819.953125 423.277344 808.886719 395.089844 796.570312 C 355.632812 779.449219 317.007812 759.40625 280.054688 737.484375 C 274.210938 733.9375 272.121094 726.210938 275.671875 720.367188 C 279.222656 714.519531 286.945312 712.433594 292.792969 715.980469 C 328.910156 737.484375 366.699219 756.902344 405.113281 773.605469 C 432.460938 785.503906 460.855469 796.359375 489.042969 805.753906 C 495.511719 807.84375 499.0625 814.941406 496.976562 821.621094 C 495.511719 826.839844 490.503906 830.183594 485.28125 830.183594 Z M 485.28125 830.183594 " fill-opacity="1" fill-rule="nonzero"/><path fill="#b47bff" d="M 161.886719 498.4375 C 157.296875 498.4375 152.910156 495.929688 150.613281 491.335938 C 130.988281 451.671875 109.277344 387.992188 115.957031 311.164062 C 118.878906 277.132812 127.441406 243.519531 140.800781 211.578125 C 143.515625 205.105469 150.824219 202.183594 157.296875 204.894531 C 163.765625 207.609375 166.691406 214.917969 163.976562 221.390625 C 151.449219 251.035156 143.726562 281.933594 141.011719 313.460938 C 134.746094 384.652344 155 443.527344 173.164062 480.480469 C 176.292969 486.746094 173.578125 494.261719 167.523438 497.183594 C 165.644531 498.019531 163.765625 498.4375 161.886719 498.4375 Z M 161.886719 498.4375 " fill-opacity="1" fill-rule="nonzero"/><path fill="#b47bff" d="M 661.28125 318.472656 C 620.777344 318.472656 587.792969 285.484375 587.792969 244.980469 C 587.792969 204.480469 620.777344 171.492188 661.28125 171.492188 C 701.785156 171.492188 734.769531 204.480469 734.769531 244.980469 C 734.769531 285.484375 701.785156 318.472656 661.28125 318.472656 Z M 661.28125 196.335938 C 634.558594 196.335938 612.84375 218.050781 612.84375 244.773438 C 612.84375 271.496094 634.558594 293.207031 661.28125 293.207031 C 688.003906 293.207031 709.71875 271.496094 709.71875 244.773438 C 709.71875 218.050781 688.003906 196.335938 661.28125 196.335938 Z M 661.28125 196.335938 " fill-opacity="1" fill-rule="nonzero"/><path fill="#b47bff" d="M 604.285156 727.882812 C 598.441406 727.882812 592.59375 726.628906 587.167969 724.125 C 569.210938 715.980469 559.609375 696.148438 563.992188 677.148438 L 591.96875 558.144531 L 562.53125 534.761719 L 567.125 557.9375 C 569.210938 568.792969 565.664062 580.277344 557.3125 588 L 463.988281 673.808594 C 449.582031 687.171875 427.453125 687.378906 412.628906 674.644531 C 404.488281 667.753906 399.683594 657.523438 399.265625 646.875 C 398.851562 636.230469 403.023438 625.789062 410.542969 618.066406 L 475.46875 552.71875 L 449.792969 461.484375 C 448.957031 458.140625 449.375 454.59375 451.042969 451.671875 L 494.886719 379.226562 L 391.332031 421.1875 C 380.6875 425.574219 368.996094 425.363281 358.347656 420.769531 C 347.699219 416.179688 339.765625 407.828125 335.589844 396.972656 C 327.238281 375.464844 337.46875 351.457031 358.765625 342.269531 L 496.765625 283.8125 C 517.851562 274.835938 541.027344 272.75 563.367188 277.757812 L 623.074219 291.121094 C 652.09375 297.59375 677.566406 316.175781 692.808594 341.644531 L 719.949219 387.160156 L 791.558594 417.847656 C 801.578125 422.023438 809.304688 429.957031 813.269531 440.1875 C 817.238281 450.417969 816.820312 461.484375 812.4375 471.296875 C 803.457031 490.710938 780.910156 499.898438 761.078125 491.753906 L 669.839844 455.21875 C 667.335938 454.175781 665.457031 452.503906 663.996094 450.417969 L 636.855469 408.035156 L 597.394531 462.316406 L 654.808594 499.6875 C 677.148438 514.304688 687.378906 541.445312 680.28125 567.125 L 643.953125 697.609375 C 640.820312 709.300781 632.679688 718.902344 621.613281 723.914062 C 616.1875 726.421875 610.339844 727.882812 604.285156 727.882812 Z M 555.015625 496.765625 L 614.097656 543.53125 C 617.855469 546.453125 619.527344 551.464844 618.484375 556.265625 L 588.628906 682.996094 C 586.957031 690.511719 590.714844 698.234375 597.605469 701.367188 C 601.988281 703.453125 606.792969 703.246094 611.175781 701.367188 C 615.558594 699.277344 618.691406 695.730469 619.945312 690.929688 L 656.0625 560.859375 C 660.238281 545.621094 654.183594 529.753906 641.03125 520.984375 L 572.550781 476.304688 C 569.628906 474.425781 567.75 471.503906 567.125 468.164062 C 566.496094 464.824219 567.332031 461.273438 569.421875 458.558594 L 627.460938 379.015625 C 629.964844 375.675781 633.933594 373.796875 637.898438 373.796875 C 642.074219 374.003906 645.832031 376.09375 648.128906 379.640625 L 682.996094 434.132812 L 770.472656 469.207031 C 777.988281 472.128906 786.339844 468.789062 789.679688 461.484375 C 791.347656 457.726562 791.558594 453.550781 790.097656 449.792969 C 788.636719 446.03125 785.710938 442.902344 781.953125 441.441406 L 706.585938 409.078125 C 704.082031 408.035156 702.203125 406.15625 700.742188 404.070312 L 671.511719 355.007812 C 659.820312 335.382812 640.195312 321.183594 617.648438 315.964844 L 557.9375 302.605469 C 540.609375 298.636719 522.863281 300.308594 506.578125 307.195312 L 368.578125 365.652344 C 359.808594 369.414062 355.632812 379.226562 358.972656 388.203125 C 360.644531 392.585938 363.984375 396.136719 368.367188 398.015625 C 372.753906 399.894531 377.554688 399.894531 381.9375 398.222656 L 520.566406 342.0625 C 525.578125 339.976562 531.214844 341.4375 534.761719 345.613281 C 538.3125 349.789062 538.730469 355.632812 536.015625 360.226562 L 475.46875 460.4375 L 501.566406 553.34375 C 502.820312 557.730469 501.566406 562.320312 498.4375 565.453125 L 428.496094 636.019531 C 425.78125 638.734375 424.320312 642.28125 424.527344 646.25 C 424.738281 650.007812 426.40625 653.558594 429.332031 656.0625 C 434.550781 660.65625 442.273438 660.445312 447.496094 655.855469 L 540.816406 570.046875 C 542.695312 568.375 543.53125 565.871094 542.90625 563.367188 L 532.257812 509.917969 C 530.796875 507.414062 530.171875 504.492188 530.585938 501.777344 L 527.664062 487.371094 C 526.414062 480.691406 530.796875 474.007812 537.476562 472.546875 C 544.160156 471.296875 550.839844 475.679688 552.300781 482.359375 Z M 555.015625 496.765625 " fill-opacity="1" fill-rule="nonzero"/></svg>