<svg xmlns="http://www.w3.org/2000/svg" xmlns:xlink="http://www.w3.org/1999/xlink" width="1200" zoomAndPan="magnify" viewBox="0 0 900 899.99999" height="1200" preserveAspectRatio="xMidYMid meet" version="1.0"><defs><clipPath id="af80e90049"><path d="M 267 16.304688 L 358 16.304688 L 358 61 L 267 61 Z M 267 16.304688 " clip-rule="nonzero"/></clipPath><clipPath id="1ad61917eb"><path d="M 385 16.304688 L 545 16.304688 L 545 48 L 385 48 Z M 385 16.304688 " clip-rule="nonzero"/></clipPath><clipPath id="809699c08b"><path d="M 75.9375 437 L 114 437 L 114 523 L 75.9375 523 Z M 75.9375 437 " clip-rule="nonzero"/></clipPath><clipPath id="75c2277609"><path d="M 315 16.304688 L 420 16.304688 L 420 60 L 315 60 Z M 315 16.304688 " clip-rule="nonzero"/></clipPath><clipPath id="7a03880d12"><path d="M 304 16.304688 L 824.4375 16.304688 L 824.4375 884 L 304 884 Z M 304 16.304688 " clip-rule="nonzero"/></clipPath></defs><path fill="#b47bff" d="M 230.003906 538.59375 C 227.167969 514.921875 225.460938 490.550781 224.957031 465.714844 L 176.953125 474.058594 C 177.730469 498.894531 179.824219 523.1875 182.96875 546.78125 Z M 230.003906 538.59375 " fill-opacity="1" fill-rule="nonzero"/><path fill="#b47bff" d="M 303.113281 292.167969 L 247.738281 301.792969 C 242.769531 325.308594 238.964844 349.71875 236.40625 374.828125 L 290.269531 365.476562 C 293.257812 340.171875 297.605469 315.6875 303.113281 292.167969 Z M 303.113281 292.167969 " fill-opacity="1" fill-rule="nonzero"/><path fill="#b47bff" d="M 189.71875 311.882812 C 185.140625 335.398438 181.648438 359.695312 179.4375 384.761719 L 228.410156 376.265625 C 230.894531 351.15625 234.660156 326.785156 239.546875 303.269531 Z M 189.71875 311.882812 " fill-opacity="1" fill-rule="nonzero"/><path fill="#b47bff" d="M 285.378906 455.199219 L 232.796875 464.355469 C 233.261719 489.230469 234.929688 513.601562 237.726562 537.273438 L 289.609375 528.273438 C 287.011719 504.484375 285.574219 480.113281 285.378906 455.199219 Z M 285.378906 455.199219 " fill-opacity="1" fill-rule="nonzero"/><path fill="#b47bff" d="M 285.339844 447.242188 C 285.417969 422.09375 286.855469 397.53125 289.414062 373.585938 L 235.589844 382.9375 C 233.609375 404.824219 232.5625 427.21875 232.5625 449.996094 C 232.5625 452.132812 232.640625 454.265625 232.640625 456.402344 Z M 285.339844 447.242188 " fill-opacity="1" fill-rule="nonzero"/><path fill="#b47bff" d="M 224.839844 457.757812 C 224.800781 455.160156 224.722656 452.597656 224.722656 449.996094 C 224.722656 427.683594 225.734375 405.757812 227.636719 384.335938 L 178.816406 392.835938 C 177.378906 411.578125 176.566406 430.632812 176.566406 450.035156 C 176.566406 455.429688 176.679688 460.785156 176.796875 466.140625 Z M 224.839844 457.757812 " fill-opacity="1" fill-rule="nonzero"/><path fill="#b47bff" d="M 238.734375 545.035156 C 242.03125 570.457031 246.648438 595.097656 252.433594 618.730469 L 303.621094 609.84375 C 297.992188 586.171875 293.53125 561.566406 290.464844 536.070312 Z M 238.734375 545.035156 " fill-opacity="1" fill-rule="nonzero"/><path fill="#b47bff" d="M 136.320312 286 L 179.667969 302.839844 C 184.984375 277.226562 191.621094 252.664062 199.5 229.339844 L 158.363281 213.351562 C 149.75 236.246094 142.335938 260.539062 136.320312 286 Z M 136.320312 286 " fill-opacity="1" fill-rule="nonzero"/><path fill="#b47bff" d="M 211.0625 231.164062 C 203.265625 254.136719 196.667969 278.351562 191.390625 303.65625 L 241.21875 294.964844 C 246.804688 269.582031 253.789062 245.328125 261.941406 222.277344 Z M 211.0625 231.164062 " fill-opacity="1" fill-rule="nonzero"/><path fill="#b47bff" d="M 254.335938 626.296875 C 261.007812 652.183594 269.121094 676.785156 278.472656 699.878906 L 329.117188 691.066406 C 319.839844 667.976562 311.886719 643.375 305.367188 617.449219 Z M 254.335938 626.296875 " fill-opacity="1" fill-rule="nonzero"/><path fill="#b47bff" d="M 328.457031 210.75 L 270.554688 220.800781 C 262.289062 243.777344 255.265625 268.109375 249.5625 293.527344 L 305.09375 283.863281 C 311.496094 258.136719 319.335938 233.6875 328.457031 210.75 Z M 328.457031 210.75 " fill-opacity="1" fill-rule="nonzero"/><path fill="#b47bff" d="M 184.015625 554.542969 C 187.703125 579.964844 192.667969 604.527344 198.800781 628.046875 L 244.75 620.050781 C 238.964844 596.417969 234.308594 571.8125 230.972656 546.394531 Z M 184.015625 554.542969 " fill-opacity="1" fill-rule="nonzero"/><path fill="#b47bff" d="M 98.988281 271.484375 L 128.988281 283.164062 C 135.078125 257.746094 142.53125 233.492188 151.144531 210.597656 L 123.554688 199.886719 C 114.085938 222.238281 105.859375 246.222656 98.988281 271.484375 Z M 98.988281 271.484375 " fill-opacity="1" fill-rule="nonzero"/><path fill="#b47bff" d="M 227.597656 822.160156 C 213.546875 806.054688 200.46875 787.851562 188.515625 767.75 L 149.828125 752.695312 C 161.546875 772.71875 174.390625 790.878906 188.246094 806.828125 Z M 227.597656 822.160156 " fill-opacity="1" fill-rule="nonzero"/><path fill="#b47bff" d="M 178.078125 310.640625 L 134.496094 293.683594 C 129.296875 316.851562 125.222656 340.910156 122.390625 365.707031 L 167.792969 383.367188 C 170.007812 358.414062 173.460938 334.121094 178.078125 310.640625 Z M 178.078125 310.640625 " fill-opacity="1" fill-rule="nonzero"/><path fill="#b47bff" d="M 127.164062 290.847656 L 96.933594 279.089844 C 91.074219 301.910156 86.375 325.738281 82.921875 350.378906 L 114.859375 362.796875 C 117.773438 338.039062 121.925781 313.976562 127.164062 290.847656 Z M 127.164062 290.847656 " fill-opacity="1" fill-rule="nonzero"/><path fill="#b47bff" d="M 335.519531 883.433594 L 357.171875 883.433594 C 352.476562 880.992188 347.859375 878.3125 343.28125 875.480469 L 258.136719 842.414062 C 278.238281 860.421875 299.894531 874.082031 322.636719 882.890625 C 326.902344 883.242188 331.210938 883.433594 335.519531 883.433594 Z M 335.519531 883.433594 " fill-opacity="1" fill-rule="nonzero"/><path fill="#b47bff" d="M 270.75 701.234375 C 261.398438 678.105469 253.324219 653.503906 246.648438 627.65625 L 200.859375 635.613281 C 208 661.496094 216.574219 686.023438 226.394531 708.917969 Z M 270.75 701.234375 " fill-opacity="1" fill-rule="nonzero"/><path fill="#b47bff" d="M 419.613281 883.433594 C 412.433594 879.902344 405.371094 875.828125 398.425781 871.367188 L 369.359375 876.410156 C 374.984375 879.050781 380.691406 881.457031 386.472656 883.433594 Z M 419.613281 883.433594 " fill-opacity="1" fill-rule="nonzero"/><path fill="#b47bff" d="M 126.660156 192.628906 L 153.980469 203.261719 C 164.261719 177.144531 176.058594 152.851562 189.292969 130.886719 L 166.046875 121.84375 C 151.417969 142.917969 138.183594 166.628906 126.660156 192.628906 Z M 126.660156 192.628906 " fill-opacity="1" fill-rule="nonzero"/><path fill="#b47bff" d="M 161.15625 206.054688 L 202.0625 221.964844 C 211.335938 195.65625 222.125 171.011719 234.308594 148.386719 L 196.550781 133.71875 C 183.277344 155.605469 171.402344 179.859375 161.15625 206.054688 Z M 161.15625 206.054688 " fill-opacity="1" fill-rule="nonzero"/><path fill="#b47bff" d="M 291.976562 67.007812 L 261.125 55.019531 C 239.003906 74.226562 218.710938 98.480469 200.742188 126.890625 L 238.074219 141.402344 C 254.023438 112.996094 272.148438 87.964844 291.976562 67.007812 Z M 291.976562 67.007812 " fill-opacity="1" fill-rule="nonzero"/><path fill="#b47bff" d="M 170.628906 115.207031 L 193.523438 124.09375 C 211.257812 95.804688 231.203125 71.433594 253.015625 51.875 L 240.128906 46.867188 C 214.789062 63.632812 191.351562 86.722656 170.628906 115.207031 Z M 170.628906 115.207031 " fill-opacity="1" fill-rule="nonzero"/><g clip-path="url(#af80e90049)"><path fill="#b47bff" d="M 322.671875 17.105469 C 303.542969 24.515625 285.1875 35.304688 267.878906 49.273438 L 297.835938 60.917969 C 316.308594 42.445312 336.21875 27.464844 357.210938 16.558594 L 335.519531 16.558594 C 331.210938 16.558594 326.941406 16.753906 322.671875 17.105469 Z M 322.671875 17.105469 " fill-opacity="1" fill-rule="nonzero"/></g><path fill="#b47bff" d="M 544.882812 883.433594 C 515.660156 883.433594 487.605469 875.246094 461.410156 860.421875 L 409.835938 869.386719 C 419.34375 874.976562 429.121094 879.671875 439.09375 883.433594 Z M 544.882812 883.433594 " fill-opacity="1" fill-rule="nonzero"/><path fill="#b47bff" d="M 148.078125 681.015625 C 140.085938 658.742188 133.21875 635.261719 127.589844 610.777344 L 91.226562 596.648438 C 96.464844 621.019531 103.023438 644.382812 110.707031 666.503906 Z M 148.078125 681.015625 " fill-opacity="1" fill-rule="nonzero"/><path fill="#b47bff" d="M 317.824219 857.203125 C 297.644531 840.667969 278.898438 820.140625 261.902344 796.234375 L 200.277344 772.292969 C 213.507812 793.324219 227.984375 812.183594 243.546875 828.328125 Z M 317.824219 857.203125 " fill-opacity="1" fill-rule="nonzero"/><path fill="#b47bff" d="M 182.308594 756.921875 C 170.9375 736.550781 160.730469 714.429688 151.765625 690.875 L 114.125 676.242188 C 122.738281 699.683594 132.636719 721.6875 143.65625 741.90625 Z M 182.308594 756.921875 " fill-opacity="1" fill-rule="nonzero"/><path fill="#b47bff" d="M 125.496094 601.578125 C 120.644531 578.953125 116.878906 555.515625 114.203125 531.414062 L 79.121094 517.792969 C 81.371094 541.777344 84.863281 565.0625 89.363281 587.570312 Z M 125.496094 601.578125 " fill-opacity="1" fill-rule="nonzero"/><path fill="#b47bff" d="M 121.535156 373.78125 C 119.128906 396.910156 117.808594 420.582031 117.65625 444.757812 L 165.039062 463.152344 C 164.960938 458.769531 164.84375 454.382812 164.84375 449.957031 C 164.84375 430.128906 165.699219 410.648438 167.210938 391.476562 Z M 121.535156 373.78125 " fill-opacity="1" fill-rule="nonzero"/><path fill="#b47bff" d="M 399.9375 863.179688 L 451.242188 854.253906 C 423.6875 836.441406 398.386719 810.980469 376.304688 779.46875 L 325.816406 788.242188 C 347.742188 819.597656 372.734375 845.054688 399.9375 863.179688 Z M 399.9375 863.179688 " fill-opacity="1" fill-rule="nonzero"/><path fill="#b47bff" d="M 239.625 835.199219 L 200.160156 819.867188 C 228.410156 848.78125 260.234375 868.882812 294.304688 877.925781 C 275.019531 867.019531 256.703125 852.660156 239.625 835.199219 Z M 239.625 835.199219 " fill-opacity="1" fill-rule="nonzero"/><g clip-path="url(#1ad61917eb)"><path fill="#b47bff" d="M 544.882812 16.558594 L 439.09375 16.558594 C 420.351562 23.625 402.382812 34.023438 385.386719 47.375 L 477.628906 31.347656 C 499.050781 21.722656 521.597656 16.558594 544.882812 16.558594 Z M 544.882812 16.558594 " fill-opacity="1" fill-rule="nonzero"/></g><path fill="#b47bff" d="M 389.113281 865.039062 C 362.878906 846.140625 338.777344 820.566406 317.589844 789.636719 L 276.414062 796.816406 C 300.476562 828.910156 327.914062 854.097656 357.714844 870.511719 Z M 389.113281 865.039062 " fill-opacity="1" fill-rule="nonzero"/><path fill="#b47bff" d="M 76.246094 428.730469 L 109.816406 441.769531 C 110.085938 417.632812 111.484375 393.960938 113.96875 370.871094 L 81.796875 358.375 C 78.847656 381.191406 76.945312 404.671875 76.246094 428.730469 Z M 76.246094 428.730469 " fill-opacity="1" fill-rule="nonzero"/><path fill="#b47bff" d="M 455.082031 43.183594 L 373.355469 57.386719 C 351.390625 77.023438 331.25 101.742188 313.476562 130.574219 L 377.003906 119.515625 C 399.9375 86.957031 426.328125 60.917969 455.082031 43.183594 Z M 455.082031 43.183594 " fill-opacity="1" fill-rule="nonzero"/><g clip-path="url(#809699c08b)"><path fill="#b47bff" d="M 113.269531 522.605469 C 110.980469 498.972656 109.699219 474.796875 109.699219 450.113281 L 76.132812 437.074219 C 76.054688 441.382812 75.9375 445.652344 75.9375 449.996094 C 75.9375 470.0625 76.828125 489.734375 78.382812 509.0625 Z M 113.269531 522.605469 " fill-opacity="1" fill-rule="nonzero"/></g><path fill="#b47bff" d="M 212.734375 706.164062 C 203.417969 683.65625 195.308594 659.632812 188.515625 634.449219 L 136.320312 614.152344 C 142.179688 638.832031 149.320312 662.429688 157.585938 684.703125 Z M 212.734375 706.164062 " fill-opacity="1" fill-rule="nonzero"/><path fill="#b47bff" d="M 253.945312 784.75 C 240.324219 764.0625 227.984375 741.089844 217.078125 716.253906 L 161.390625 694.597656 C 170.820312 718.542969 181.609375 740.859375 193.523438 761.269531 Z M 253.945312 784.75 " fill-opacity="1" fill-rule="nonzero"/><path fill="#b47bff" d="M 186.035156 625.09375 C 180.25 602.238281 175.632812 578.449219 172.140625 553.882812 L 122.429688 534.558594 C 125.222656 558.773438 129.140625 582.292969 134.1875 604.914062 Z M 186.035156 625.09375 " fill-opacity="1" fill-rule="nonzero"/><path fill="#b47bff" d="M 259.804688 46.132812 C 270.90625 36.855469 282.390625 28.785156 294.304688 22.070312 C 278.472656 26.300781 263.105469 32.898438 248.359375 41.707031 Z M 259.804688 46.132812 " fill-opacity="1" fill-rule="nonzero"/><path fill="#b47bff" d="M 170.859375 544.996094 C 167.792969 521.171875 165.816406 496.683594 165.117188 471.652344 L 117.578125 453.179688 C 117.695312 477.9375 119.011719 502.195312 121.457031 525.828125 Z M 170.859375 544.996094 " fill-opacity="1" fill-rule="nonzero"/><path fill="#b47bff" d="M 273.855469 708.648438 L 229.613281 716.332031 C 241.761719 743.417969 255.730469 768.0625 271.175781 789.792969 L 312.738281 782.574219 C 298.265625 760.339844 285.226562 735.539062 273.855469 708.648438 Z M 273.855469 708.648438 " fill-opacity="1" fill-rule="nonzero"/><path fill="#b47bff" d="M 281.617188 707.289062 C 293.0625 734.300781 306.257812 759.058594 320.925781 781.140625 L 371.375 772.367188 C 356.707031 750.367188 343.589844 725.527344 332.257812 698.519531 Z M 281.617188 707.289062 " fill-opacity="1" fill-rule="nonzero"/><path fill="#b47bff" d="M 359.734375 59.753906 L 305.753906 69.144531 C 285.730469 89.128906 267.414062 113.460938 251.269531 141.363281 L 303.542969 132.285156 C 320.191406 104.226562 339.128906 79.855469 359.734375 59.753906 Z M 359.734375 59.753906 " fill-opacity="1" fill-rule="nonzero"/><g clip-path="url(#75c2277609)"><path fill="#b47bff" d="M 419.652344 16.558594 L 386.511719 16.558594 C 361.519531 25.136719 337.847656 39.765625 315.960938 59.441406 L 370.25 50.011719 C 385.890625 36.273438 402.421875 25.058594 419.652344 16.558594 Z M 419.652344 16.558594 " fill-opacity="1" fill-rule="nonzero"/></g><path fill="#b47bff" d="M 370.753906 128.558594 L 308.160156 139.421875 C 295.238281 161.582031 283.710938 185.992188 273.777344 212.265625 L 331.988281 202.136719 C 343.203125 175.242188 356.203125 150.523438 370.753906 128.558594 Z M 370.753906 128.558594 " fill-opacity="1" fill-rule="nonzero"/><path fill="#b47bff" d="M 298.417969 141.132812 L 246.261719 150.210938 C 234.117188 172.410156 223.25 196.664062 213.976562 222.703125 L 264.929688 213.855469 C 274.589844 187.699219 285.84375 163.40625 298.417969 141.132812 Z M 298.417969 141.132812 " fill-opacity="1" fill-rule="nonzero"/><path fill="#b47bff" d="M 701.394531 663.089844 C 733.097656 606.042969 750.523438 530.367188 750.523438 449.996094 C 750.523438 369.628906 733.058594 293.953125 701.394531 236.90625 C 668.910156 178.386719 625.175781 146.175781 578.296875 146.175781 C 531.417969 146.175781 487.683594 178.386719 455.199219 236.90625 C 423.496094 293.953125 406.070312 369.628906 406.070312 449.996094 C 406.070312 530.367188 423.535156 606.042969 455.199219 663.089844 C 487.683594 721.609375 531.417969 753.820312 578.296875 753.820312 C 625.175781 753.820312 668.910156 721.609375 701.394531 663.089844 Z M 490.863281 688.894531 C 449.183594 637.046875 421.75 549.34375 421.75 449.996094 C 421.75 350.652344 449.183594 262.945312 490.863281 211.101562 C 531.726562 264.925781 558.3125 351.816406 558.3125 449.996094 C 558.3125 548.140625 531.726562 635.03125 490.863281 688.894531 Z M 490.863281 688.894531 " fill-opacity="1" fill-rule="nonzero"/><g clip-path="url(#7a03880d12)"><path fill="#b47bff" d="M 824.0625 449.996094 C 824.0625 210.597656 707.835938 16.558594 564.480469 16.558594 C 421.128906 16.558594 304.898438 210.597656 304.898438 449.996094 C 304.898438 689.398438 421.128906 883.433594 564.480469 883.433594 C 707.835938 883.433594 824.0625 689.398438 824.0625 449.996094 Z M 381.542969 449.996094 C 381.542969 251.1875 469.832031 89.480469 578.335938 89.480469 C 686.839844 89.480469 775.125 251.226562 775.125 449.996094 C 775.125 648.769531 686.839844 810.515625 578.335938 810.515625 C 469.792969 810.515625 381.542969 648.808594 381.542969 449.996094 Z M 381.542969 449.996094 " fill-opacity="1" fill-rule="nonzero"/></g></svg>